# xmcd
#
# Track frame offsets:
#	150
#	14721
#	32935
#	48078
#	57482
#	75572
#	86898
#	106831
#	120123
#	132542
#	146091
#	159527
#	169342
#	180407
#	197531
#	207074
#	221675
#	242570
#	261192
#	272794
#	290554
#	304222
#	317155
#	329894
#	344015
#
# Disc length: 4593 seconds
#
# Revision: 1
# Processed by: cddbd v1.5.2PL0 Copyright (c) Steve Scherf et al.
# Submitted via: audiograbber 1.83.01
#
DISCID=8211ef19
DTITLE=Dwight Yoakam - DwightYoakamAcoustic.net
DYEAR=1900
DGENRE=Country
TTITLE0=1.000 Miles
TTITLE1=Little Sister
TTITLE2=Please, Please Baby
TTITLE3=It Won't Hurt 
TTITLE4=I'll Be Gone
TTITLE5=Johnson's Love 
TTITLE6=Little Ways
TTITLE7=This Drinkin' Will Kill Me
TTITLE8=Nothing's Changed Here
TTITLE9=Throughout All Time
TTITLE10=Sad, Sad Music
TTITLE11=It Only Hurts When I Cry
TTITLE12=Buenas Noches From A Lonely Room [She Wore Red]
TTITLE13=The Distance Between You And Me
TTITLE14=A Thousand Miles From Nowhere
TTITLE15=Two doors down
TTITLE16=Readin', Rightin', Rt. 23
TTITLE17=If There Was A Way
TTITLE18=Fast as You
TTITLE19=Home For Sale 
TTITLE20=A Long Way Home
TTITLE21=Lonesome Roads
TTITLE22=Things Change 
TTITLE23=Guitars, Cadillacs
TTITLE24=Bury Me
EXTD=
EXTT0=
EXTT1=
EXTT2=
EXTT3=
EXTT4=
EXTT5=
EXTT6=
EXTT7=
EXTT8=
EXTT9=
EXTT10=
EXTT11=
EXTT12=
EXTT13=
EXTT14=
EXTT15=
EXTT16=
EXTT17=
EXTT18=
EXTT19=
EXTT20=
EXTT21=
EXTT22=
EXTT23=
EXTT24=Bury me on 1
PLAYORDER=
